<!DOCTYPE svg PUBLIC "-//W3C//DTD SVG 20010904//EN" "http://www.w3.org/TR/2001/REC-SVG-20010904/DTD/svg10.dtd">
<svg version="1.0" xmlns="http://www.w3.org/2000/svg" width="1024px" height="1024px" viewBox="0 0 10240 10240" preserveAspectRatio="xMidYMid meet">
<g id="layer101" fill="#8fd8ff" stroke="none">
 <path d="M4880 9899 c-30 -5 -57 -13 -60 -18 -3 -5 -21 -12 -40 -16 -54 -11 -212 -84 -230 -106 -3 -4 -15 -9 -28 -13 -12 -4 -27 -16 -32 -27 -6 -10 -16 -19 -23 -19 -26 0 -151 -118 -259 -246 -37 -43 -76 -88 -86 -99 -10 -11 -21 -28 -25 -37 -3 -10 -11 -18 -17 -18 -5 0 -10 -5 -10 -11 0 -6 -10 -25 -23 -42 -30 -43 -45 -67 -59 -97 -7 -14 -18 -31 -25 -37 -6 -7 -14 -26 -18 -43 -4 -16 -11 -30 -15 -30 -5 0 -15 -18 -21 -40 -7 -22 -15 -40 -19 -40 -4 0 -13 -20 -20 -45 -7 -25 -16 -45 -19 -45 -4 0 -13 -23 -20 -51 -8 -28 -20 -63 -27 -77 -7 -15 -16 -46 -20 -69 -3 -24 -10 -43 -14 -43 -5 0 -14 -34 -21 -75 -7 -41 -16 -75 -20 -75 -3 0 -12 -35 -19 -77 -6 -42 -16 -84 -21 -92 -12 -21 -38 -190 -51 -326 -12 -137 -4 -643 11 -658 6 -6 11 -31 12 -56 1 -69 56 -391 68 -401 4 -3 13 -34 20 -70 7 -36 16 -69 21 -75 4 -5 11 -26 15 -45 4 -19 16 -54 26 -77 11 -23 19 -48 19 -55 0 -8 6 -22 14 -33 8 -11 19 -39 26 -63 7 -23 16 -42 20 -42 4 0 13 -18 20 -40 7 -22 16 -40 20 -40 4 0 13 -18 20 -40 7 -22 17 -40 22 -40 4 0 8 -5 8 -10 0 -15 131 -213 147 -223 7 -4 13 -13 13 -18 0 -28 259 -285 340 -337 89 -57 140 -55 140 7 0 24 -38 130 -51 141 -9 8 -69 136 -69 148 0 7 -4 12 -8 12 -5 0 -15 19 -21 43 -7 23 -17 47 -21 52 -4 6 -13 28 -20 50 -6 22 -18 54 -25 71 -8 16 -17 49 -21 72 -4 23 -10 42 -14 42 -4 0 -13 33 -20 73 -7 39 -16 77 -20 82 -4 6 -13 51 -20 100 -7 50 -17 95 -21 100 -4 6 -13 80 -19 165 -7 85 -16 165 -21 178 -12 30 -12 524 0 571 5 20 15 101 21 181 6 80 15 149 19 155 4 5 13 53 20 105 7 52 17 100 21 105 4 6 13 43 20 83 7 39 16 72 20 72 4 0 11 19 14 43 4 23 13 54 20 68 7 14 19 49 26 78 6 28 15 51 20 51 4 0 10 14 14 30 3 17 27 74 54 128 74 147 83 162 93 162 5 0 9 5 9 12 0 21 151 185 229 248 17 14 41 33 53 43 12 10 32 20 45 23 13 4 23 10 23 14 0 16 104 32 178 28 72 -4 166 -36 205 -68 41 -35 91 -70 98 -70 5 0 8 -3 7 -7 -2 -5 31 -43 72 -85 41 -43 83 -88 92 -100 38 -50 68 -100 74 -123 3 -13 12 -29 20 -36 8 -6 14 -16 14 -21 0 -5 10 -30 21 -56 12 -26 30 -66 40 -89 11 -23 19 -48 19 -55 0 -7 7 -26 15 -41 8 -15 20 -52 27 -82 7 -30 16 -55 19 -55 4 0 12 -30 19 -67 7 -38 16 -72 20 -78 5 -5 14 -46 20 -90 7 -44 16 -84 20 -90 5 -5 13 -64 20 -130 6 -66 16 -129 22 -140 16 -28 23 -640 9 -775 -6 -58 -13 -127 -16 -155 -7 -81 -13 -112 -60 -310 -9 -36 -29 -96 -45 -133 -43 -101 -156 -292 -198 -336 -140 -148 -700 -680 -742 -706 -13 -8 -174 -158 -253 -236 -205 -202 -386 -405 -424 -479 -9 -16 -19 -32 -22 -35 -10 -8 -61 -89 -61 -96 0 -4 -6 -15 -14 -23 -16 -18 -61 -99 -138 -251 -29 -58 -56 -107 -60 -108 -5 -2 -8 -8 -8 -13 0 -9 -10 -32 -67 -156 -13 -29 -26 -66 -29 -83 -4 -16 -10 -30 -13 -30 -4 0 -13 -24 -20 -53 -8 -28 -17 -56 -21 -62 -4 -5 -13 -35 -20 -65 -7 -30 -16 -59 -20 -65 -4 -5 -12 -37 -19 -70 -7 -33 -16 -69 -21 -80 -11 -26 -30 -131 -30 -166 0 -15 -4 -29 -9 -31 -9 -3 -36 -214 -52 -408 -11 -136 -4 -557 10 -593 5 -12 15 -78 21 -147 7 -69 16 -127 19 -130 4 -3 13 -43 20 -90 8 -47 17 -89 21 -95 4 -5 13 -37 20 -70 7 -33 16 -65 20 -70 5 -6 14 -33 21 -60 6 -28 15 -54 19 -60 5 -5 13 -30 20 -55 7 -25 15 -47 19 -50 4 -3 13 -24 19 -47 7 -24 17 -43 22 -43 6 0 10 -6 10 -13 0 -15 60 -140 71 -147 4 -3 10 -17 14 -32 4 -15 13 -29 21 -32 8 -3 14 -11 14 -17 0 -15 125 -202 159 -238 14 -15 49 -51 76 -81 62 -66 166 -156 231 -200 27 -19 51 -37 54 -41 3 -4 21 -14 40 -23 19 -9 53 -27 75 -40 22 -13 64 -29 93 -36 28 -6 52 -15 52 -19 0 -5 35 -14 78 -21 42 -7 81 -15 86 -18 50 -28 378 4 455 44 14 8 34 14 43 14 9 0 19 4 23 9 3 5 28 17 55 26 28 9 50 20 50 25 0 5 15 13 33 19 19 7 43 19 53 29 21 18 51 38 71 48 32 16 160 139 250 240 70 79 143 170 143 177 0 5 34 60 57 93 36 49 161 306 178 364 4 14 11 30 15 35 4 6 13 33 20 60 7 28 16 55 20 60 4 6 14 37 21 70 7 33 16 65 20 70 4 6 13 46 20 90 7 44 16 82 20 85 8 6 35 207 50 375 13 137 6 683 -9 710 -6 11 -16 73 -22 138 -7 64 -16 119 -20 122 -4 3 -13 41 -21 85 -7 44 -15 80 -19 80 -3 0 -12 29 -19 65 -7 36 -17 67 -21 70 -5 3 -14 30 -21 60 -7 30 -16 55 -20 55 -4 0 -10 15 -14 32 -4 18 -12 42 -19 53 -7 11 -18 39 -26 63 -7 23 -16 42 -20 42 -3 0 -12 17 -19 38 -8 20 -17 39 -20 42 -3 3 -17 28 -31 55 -31 64 -150 248 -167 258 -7 4 -13 12 -13 18 0 13 -43 61 -172 192 -111 113 -140 129 -202 113 -22 -5 -26 -12 -26 -41 0 -19 4 -35 8 -35 4 0 14 -20 21 -45 7 -25 17 -45 22 -45 5 0 9 -5 9 -10 0 -10 9 -32 67 -157 13 -29 26 -66 29 -83 4 -16 10 -30 13 -30 4 0 13 -23 20 -51 7 -28 19 -62 26 -77 7 -15 16 -47 20 -72 4 -25 11 -49 15 -55 4 -5 14 -46 21 -90 7 -44 16 -82 19 -85 8 -6 30 -183 30 -237 0 -22 5 -44 11 -50 15 -15 23 -604 11 -753 -14 -157 -41 -361 -52 -385 -5 -11 -14 -57 -21 -103 -7 -45 -16 -82 -19 -82 -4 0 -12 -31 -19 -70 -7 -38 -16 -70 -20 -70 -3 0 -12 -25 -19 -55 -7 -30 -19 -67 -27 -82 -8 -15 -15 -34 -15 -41 0 -8 -6 -28 -14 -45 -56 -127 -71 -158 -94 -204 -15 -29 -30 -53 -34 -53 -5 0 -8 -6 -8 -13 0 -13 -31 -52 -95 -119 -19 -20 -35 -42 -35 -48 0 -6 -7 -13 -15 -16 -8 -3 -36 -27 -62 -52 -54 -52 -135 -112 -152 -112 -6 0 -11 -4 -11 -9 0 -5 -26 -15 -57 -21 -32 -7 -66 -16 -75 -21 -22 -11 -55 -12 -62 0 -3 4 -23 11 -45 14 -44 6 -118 39 -171 77 -43 31 -187 176 -232 233 -18 23 -38 48 -45 55 -7 7 -13 17 -13 22 0 5 -6 15 -12 22 -7 7 -23 34 -34 58 -12 25 -33 69 -48 98 -14 30 -26 59 -26 65 -1 7 -9 30 -20 52 -11 22 -20 47 -20 55 0 8 -6 27 -14 41 -7 14 -19 50 -26 80 -7 30 -16 59 -20 64 -5 6 -13 39 -20 75 -6 36 -15 72 -20 82 -5 9 -14 56 -20 105 -6 48 -16 96 -21 105 -5 10 -14 82 -20 160 -6 79 -15 159 -20 178 -24 86 9 848 40 915 5 11 15 58 22 105 6 47 15 90 19 95 4 6 13 39 20 75 7 36 16 70 20 75 4 6 13 36 20 67 7 32 16 58 20 58 4 0 11 17 15 37 10 53 104 255 146 315 11 14 19 29 19 32 0 12 132 186 141 186 5 0 9 6 9 14 0 15 482 506 496 506 5 0 36 25 69 56 33 31 80 68 105 82 51 30 81 58 72 66 -3 3 -1 6 4 6 5 0 25 14 44 30 59 52 63 55 88 71 13 9 23 20 23 25 -1 5 3 9 7 9 16 0 365 351 413 417 28 37 53 68 57 70 5 2 23 27 42 56 18 28 37 52 42 52 4 0 8 4 8 10 0 9 35 65 65 104 8 10 17 32 20 47 4 16 10 29 15 29 5 0 14 16 20 36 7 20 18 48 26 62 8 15 14 34 14 42 0 8 6 27 14 42 8 15 20 53 27 85 7 32 16 63 20 68 4 6 13 46 20 90 7 44 16 82 19 85 5 5 15 57 58 330 9 58 21 108 27 112 15 11 14 847 -2 879 -6 13 -17 70 -23 127 -7 56 -16 104 -20 107 -4 3 -14 43 -21 90 -7 47 -15 85 -19 85 -4 0 -13 30 -20 68 -7 37 -16 72 -20 77 -4 6 -13 33 -20 60 -7 28 -16 55 -21 60 -4 6 -13 29 -20 53 -6 23 -15 42 -19 42 -5 0 -11 12 -14 28 -9 35 -97 212 -107 212 -4 0 -10 12 -13 26 -4 14 -11 31 -17 37 -5 7 -38 54 -72 106 -82 123 -78 117 -112 158 -71 84 -222 224 -273 253 -15 8 -34 23 -43 33 -9 9 -21 17 -27 17 -6 0 -12 4 -14 8 -4 11 -104 58 -141 67 -15 4 -27 11 -27 15 0 5 -25 14 -55 21 -30 7 -55 15 -55 19 0 26 -375 39 -500 19z"/>
 <path d="M1800 6568 c-47 -5 -94 -13 -105 -18 -11 -5 -56 -14 -100 -21 -44 -6 -84 -14 -90 -19 -5 -4 -40 -13 -77 -21 -38 -7 -68 -16 -68 -19 0 -4 -27 -13 -60 -20 -33 -7 -60 -16 -60 -20 0 -4 -25 -13 -55 -20 -30 -7 -55 -16 -55 -20 0 -4 -20 -13 -45 -20 -25 -7 -45 -16 -45 -20 0 -4 -18 -13 -40 -20 -22 -7 -40 -16 -40 -20 0 -4 -18 -13 -40 -20 -22 -7 -40 -16 -40 -20 0 -4 -15 -13 -32 -21 -18 -7 -37 -19 -41 -26 -4 -7 -14 -13 -20 -13 -7 0 -22 -7 -32 -15 -40 -30 -94 -71 -121 -90 -87 -63 -212 -192 -288 -297 -31 -42 -56 -79 -56 -82 0 -3 -13 -24 -29 -48 -32 -49 -91 -178 -91 -202 0 -8 -4 -17 -9 -20 -4 -3 -13 -34 -20 -68 -7 -35 -16 -77 -21 -94 -13 -39 -13 -339 -1 -362 5 -9 15 -50 21 -89 7 -40 15 -73 20 -73 4 0 10 -12 13 -27 5 -24 31 -83 82 -183 5 -11 13 -20 17 -20 5 0 8 -6 8 -12 0 -7 14 -31 30 -53 17 -22 40 -53 53 -70 29 -39 233 -242 275 -275 18 -14 38 -30 45 -35 7 -6 35 -25 62 -42 28 -18 55 -36 60 -41 23 -18 156 -91 189 -103 20 -7 36 -17 36 -21 0 -4 20 -13 45 -19 25 -6 45 -15 45 -19 0 -5 15 -11 33 -15 17 -4 41 -13 52 -19 11 -7 42 -18 70 -25 27 -7 54 -16 60 -21 5 -4 37 -13 70 -20 33 -7 65 -16 71 -21 5 -4 44 -14 85 -20 40 -7 79 -16 84 -20 48 -37 1022 -37 1070 0 5 5 45 14 88 21 42 7 77 16 77 20 0 4 32 13 70 20 39 7 70 16 70 20 0 4 25 13 55 20 30 7 55 17 55 21 0 4 23 13 50 20 28 7 50 16 50 21 0 4 6 8 13 8 15 0 217 100 235 117 6 6 21 15 32 18 11 3 20 11 20 16 0 5 5 9 12 9 6 0 26 11 44 25 18 14 37 25 43 25 5 0 14 6 18 14 4 7 17 18 29 24 21 11 73 54 126 104 40 38 40 95 1 104 -30 8 -160 -11 -177 -25 -6 -5 -38 -15 -71 -22 -33 -7 -65 -16 -70 -20 -6 -4 -47 -13 -93 -20 -45 -8 -82 -16 -82 -20 0 -4 -51 -12 -112 -18 -62 -6 -138 -14 -168 -17 -106 -11 -544 -15 -595 -5 -27 5 -115 15 -194 21 -80 6 -149 14 -155 19 -6 4 -50 14 -98 20 -49 7 -88 17 -88 21 0 4 -21 11 -47 15 -27 4 -61 13 -78 20 -16 8 -50 19 -74 25 -24 6 -51 15 -60 20 -39 21 -129 59 -154 65 -15 4 -27 10 -27 14 0 4 -17 13 -37 20 -21 8 -40 17 -43 20 -3 3 -25 17 -50 30 -113 59 -204 128 -325 246 -102 99 -133 144 -163 232 -46 138 -30 303 40 405 10 14 18 30 18 34 0 21 182 198 261 253 100 69 100 69 136 89 156 82 325 162 346 162 9 0 18 4 22 9 3 5 30 15 60 22 30 7 55 15 55 19 0 4 30 13 68 20 37 7 72 16 77 20 6 4 53 14 105 21 52 7 100 16 105 20 6 4 75 12 155 18 80 7 163 14 185 18 80 11 468 14 479 3 5 -5 32 -10 58 -10 68 0 241 -20 253 -29 5 -4 49 -14 98 -20 48 -7 89 -17 92 -21 3 -5 37 -14 75 -21 39 -7 70 -16 70 -20 0 -11 164 -33 194 -25 21 5 26 12 26 39 0 26 -10 43 -44 78 -53 53 -77 74 -107 90 -23 12 -38 23 -68 49 -9 9 -31 22 -49 29 -18 7 -32 17 -32 22 0 4 -9 11 -20 14 -11 3 -26 12 -33 18 -7 7 -44 28 -82 47 -39 19 -71 38 -73 43 -2 4 -9 7 -15 7 -7 0 -34 11 -62 25 -27 13 -54 25 -58 25 -4 0 -27 9 -50 19 -23 11 -59 22 -79 26 -21 4 -38 11 -38 15 0 5 -31 14 -70 21 -38 7 -70 15 -70 19 0 4 -42 13 -92 20 -51 7 -97 16 -103 20 -33 26 -675 39 -875 18z"/>
 <path d="M7780 6568 c-58 -6 -107 -13 -110 -17 -3 -4 -43 -13 -90 -20 -47 -7 -89 -16 -95 -21 -5 -4 -40 -13 -77 -21 -38 -7 -68 -16 -68 -20 0 -4 -25 -13 -55 -20 -30 -7 -55 -15 -55 -20 0 -4 -12 -10 -27 -14 -15 -3 -50 -17 -79 -31 -28 -13 -56 -24 -62 -24 -7 0 -12 -4 -12 -8 0 -4 -17 -14 -37 -21 -21 -8 -40 -17 -43 -21 -3 -3 -32 -21 -65 -40 -33 -18 -64 -40 -68 -47 -4 -7 -13 -13 -19 -13 -5 0 -24 -11 -42 -25 -17 -14 -41 -34 -53 -43 -74 -56 -92 -87 -79 -137 5 -21 12 -25 46 -25 22 0 40 4 40 8 0 5 53 15 118 22 64 7 122 16 127 20 50 40 1021 40 1110 0 11 -5 58 -14 105 -20 47 -7 90 -15 95 -20 6 -4 40 -13 78 -20 37 -7 67 -15 67 -19 0 -3 25 -12 57 -20 31 -7 63 -17 72 -21 22 -12 99 -45 141 -61 19 -7 37 -16 40 -19 3 -3 21 -12 40 -20 19 -8 37 -16 40 -19 3 -3 17 -13 32 -21 87 -48 149 -87 193 -121 28 -22 58 -45 67 -52 50 -38 174 -166 195 -202 65 -110 68 -122 68 -275 -1 -80 -3 -152 -6 -160 -3 -8 -11 -28 -17 -43 -7 -16 -12 -31 -12 -34 0 -11 -100 -130 -146 -173 -39 -37 -111 -96 -179 -147 -53 -40 -177 -113 -255 -150 -141 -66 -157 -73 -173 -73 -9 0 -18 -4 -21 -9 -3 -4 -27 -14 -53 -21 -27 -7 -52 -16 -58 -20 -5 -4 -37 -14 -70 -21 -33 -7 -64 -16 -70 -19 -5 -4 -44 -13 -85 -20 -41 -6 -83 -16 -92 -20 -9 -5 -85 -14 -170 -20 -84 -7 -169 -16 -188 -21 -87 -25 -770 8 -845 40 -11 5 -56 14 -100 21 -44 6 -84 16 -90 21 -13 13 -99 11 -113 -3 -33 -33 4 -91 103 -164 22 -16 49 -37 59 -46 11 -10 25 -18 32 -18 7 0 14 -3 16 -8 4 -11 86 -63 144 -92 27 -14 51 -28 54 -31 3 -3 22 -12 43 -18 20 -7 37 -16 37 -21 0 -4 23 -14 50 -21 28 -7 50 -16 50 -20 0 -4 23 -12 50 -19 28 -7 52 -16 55 -20 3 -4 34 -14 70 -21 36 -7 65 -16 65 -20 0 -3 37 -12 83 -19 45 -7 84 -16 87 -21 27 -41 971 -41 1025 0 5 4 45 14 88 21 43 7 80 16 82 20 3 4 34 14 70 21 36 7 65 16 65 20 0 4 25 13 55 20 30 7 55 16 55 20 0 4 23 13 50 20 28 7 50 16 50 21 0 4 5 8 12 8 12 0 139 60 148 69 3 3 35 22 72 41 38 19 68 38 68 42 0 4 9 10 20 13 11 3 26 12 32 18 7 7 40 32 73 56 64 48 275 253 275 268 0 5 9 16 20 25 10 9 32 36 47 60 15 24 30 45 33 48 13 13 90 162 90 175 0 3 8 25 19 48 10 23 22 62 26 87 4 25 12 51 19 59 7 10 11 88 11 246 0 158 -4 236 -11 246 -7 8 -15 34 -19 59 -4 25 -16 64 -26 87 -11 23 -19 45 -19 48 0 3 -14 34 -30 68 -28 57 -42 83 -62 111 -133 189 -235 296 -393 416 -22 16 -45 34 -52 40 -7 6 -24 15 -38 22 -14 6 -25 14 -25 17 0 3 -30 22 -68 41 -37 19 -69 37 -72 40 -8 8 -113 57 -137 65 -13 3 -23 10 -23 14 0 5 -13 11 -30 14 -16 4 -50 16 -74 27 -25 11 -51 20 -58 20 -7 0 -24 6 -38 13 -14 7 -54 19 -90 27 -36 7 -69 16 -75 21 -5 4 -46 12 -90 18 -44 7 -89 16 -100 21 -60 27 -591 39 -825 18z"/>
 </g>

</svg>